<?xml version="1.0" encoding="UTF-8"?>
<svg width="192px" height="60px" viewBox="0 0 192 60" version="1.1" xmlns="http://www.w3.org/2000/svg" xmlns:xlink="http://www.w3.org/1999/xlink">
    <title>EZ TIT-w</title>
    <g id="Page-1" stroke="none" stroke-width="1" fill="none" fill-rule="evenodd">
        <g id="深色背景" transform="translate(-30.000000, -105.000000)" fill="#FFFFFF">
            <g id="EZ-TIT-w" transform="translate(30.000000, 105.000000)">
                <g id="icon">
                    <path d="M26.1759885,-3.41060513e-13 L26.473006,0.00863938105 C27.1654557,0.0489577968 27.8516994,0.230404361 28.4882947,0.553170788 L28.4882947,0.553170788 L50.621587,11.7688301 L50.8280564,11.879212 C52.4545945,12.7968594 53.4703027,14.5354968 53.4703027,16.4300023 L53.4703027,16.4300023 L53.4703027,41.5450435 L53.4646742,41.7889199 C53.3823519,43.5705279 52.402059,45.1933653 50.8570839,46.0791552 L50.8570839,46.0791552 L28.5886937,58.8438645 L28.3259362,58.9847036 C27.6173341,59.3385113 26.8479067,59.5182133 26.0775804,59.5238095 L26.0775804,59.5238095 L26.0047698,59.5238095 L25.7181497,59.5137511 C24.9545776,59.4654481 24.1994202,59.2453004 23.5110059,58.8533082 L23.5110059,58.8533082 L2.62943058,46.9768773 L2.42967818,46.8572892 C0.923373487,45.9087 4.68958206e-13,44.2384363 4.68958206e-13,42.4336081 L4.68958206e-13,42.4336081 L4.68958206e-13,15.9083104 L0.00524189173,15.6728322 C0.0888790198,13.7962234 1.16776866,12.1020147 2.83904554,11.2522894 L2.83904554,11.2522894 L23.8571408,0.556032509 C24.5863847,0.18543956 25.3813288,-3.41060513e-13 26.1759885,-3.41060513e-13 L26.1759885,-3.41060513e-13 Z M49.8545177,20.041638 C49.8749652,19.082389 48.8650022,18.4582475 48.033084,18.9166953 C46.4406557,19.7945125 43.9358834,21.1777505 40.9368416,22.8426925 L39.9738334,23.3775669 C37.0384445,25.0087168 33.6989427,26.8715626 30.3108042,28.7758846 L29.1801109,29.4119339 L29.1801109,29.4119339 L28.0487407,30.0494899 C22.5835289,33.1321294 17.1971167,36.2127062 13.3760797,38.495736 C12.4995081,39.0062672 11.6232208,39.5282452 10.7529063,40.049937 C9.74265889,40.6557635 9.7875967,42.1518716 10.8325429,42.6941678 L10.8325429,42.6941678 L13.3760797,44.0148523 L19.7288068,46.9395318 C21.0038459,47.5284741 21.831498,48.8076637 21.8559578,50.2273638 L21.8559578,50.2273638 L21.8989047,52.7339457 C22.1796238,55.3318166 24.2294135,55.4992273 25.3938147,55.7942708 C25.7262976,55.8689618 25.9617944,55.4826293 25.7530327,55.2096211 C25.2538818,54.5562901 24.9637769,53.7069311 24.9285093,52.7462511 L24.9285093,52.7462511 L24.9270872,52.7099073 L24.5948887,38.7867731 C24.5289041,36.8070341 25.658322,34.6573088 27.2866065,33.6671532 L27.2866065,33.6671532 L27.3892809,33.6076293 L48.7210875,21.9217891 C49.4048248,21.5471898 49.8377067,20.8291838 49.8545177,20.041638 Z M50.0572762,26.9020433 C50.0572762,25.5959535 48.6855354,24.7720639 47.5723292,25.4099416 L47.5723292,25.4099416 L29.6794026,35.8108688 C28.6239329,36.4155506 27.9706282,37.5568052 27.9706282,38.7950721 L27.9706282,38.7950721 L28.410905,51.6834077 C28.410905,53.1757956 29.979462,54.117302 31.2513726,53.3887076 L31.2513726,53.3887076 L48.8365606,43.3140167 C49.5905487,42.8824691 50.0572762,42.0668784 50.0572762,41.1823203 L50.0572762,41.1823203 Z M33.5048045,40.819454 C33.5761931,40.7785314 33.792634,40.6546188 33.9917256,40.7533482 C34.0747752,40.794557 34.2135705,40.9027301 34.2152997,41.1662946 C34.2164146,41.3133871 34.1748898,41.4564732 34.0921246,41.5909741 C34.0122036,41.7203239 33.8947396,41.8302141 33.7422923,41.9174966 L33.7422923,41.9174966 L33.2417193,42.2042411 C33.1620826,42.2500286 33.1128786,42.3361664 33.1134474,42.4303171 L33.1134474,42.4303171 L33.1305124,45.0553743 C33.1322189,45.2651385 33.0909785,45.4497196 33.0084977,45.603394 C32.924026,45.7619334 32.8102594,45.8824119 32.6703265,45.9625401 C32.5667989,46.0220639 32.4755012,46.0432406 32.3989932,46.0432406 C32.2937591,46.0432406 32.2158289,46.0037489 32.1686158,45.9705529 C31.9681022,45.8300424 31.9663957,45.5461596 31.9658268,45.4528674 L31.9658268,45.4528674 L31.9496151,42.9442823 L31.5488722,43.1740785 C31.4783369,43.2144288 31.2641713,43.3371967 31.065933,43.239612 C30.9837366,43.1992617 30.8452258,43.0919471 30.8432126,42.8280964 C30.8420972,42.676139 30.8844753,42.5310497 30.9686626,42.3959764 C31.0491524,42.2677713 31.1646255,42.1601706 31.3116689,42.0760359 L31.3116689,42.0760359 Z M37.1780437,38.7152301 C37.2454504,38.6763107 37.4516524,38.5581216 37.6444867,38.6545616 C37.7249766,38.695198 37.858368,38.8005094 37.8603589,39.0529132 C37.8609277,39.1945685 37.8228159,39.3310726 37.745739,39.458133 C37.6717907,39.5814732 37.5602995,39.6862122 37.4149626,39.7694883 L37.4149626,39.7694883 L36.1129039,40.515253 C36.0329828,40.5610405 35.9837788,40.6474645 35.9843476,40.7410428 L35.9843476,40.7410428 L35.9863385,41.0192022 L37.0654147,40.4010703 C37.1313994,40.3632956 37.3321974,40.2485405 37.5224721,40.3432635 C37.6018243,40.3827553 37.7343624,40.4866358 37.7360689,40.7378949 C37.7369221,40.8735405 37.7002324,41.0066106 37.6271373,41.131954 C37.5548955,41.2555804 37.445964,41.359747 37.3020493,41.4418784 L37.3020493,41.4418784 L36.1231429,42.1172447 C36.0435062,42.1630323 35.9943022,42.2497424 35.994871,42.3433207 C35.9962931,42.5387763 36.2016418,42.6609718 36.3683099,42.5656765 L36.3683099,42.5656765 L37.2534141,42.0585794 C37.4340185,41.9549851 37.5910164,41.9358116 37.7209948,42.001345 C37.8014847,42.0416953 37.9362981,42.1484375 37.9380286,42.4082818 C37.9391422,42.549937 37.8998928,42.6872997 37.8219626,42.8172218 C37.745739,42.9439961 37.6345322,43.0498798 37.4906174,43.1322974 L37.4906174,43.1322974 L35.615175,44.2065877 C35.5551631,44.2412145 35.4081198,44.325063 35.250553,44.325063 C35.1839996,44.325063 35.1157396,44.310182 35.0511771,44.2706902 C34.836727,44.1381925 34.8350205,43.8371394 34.8341673,43.7378377 L34.8341673,43.7378377 L34.8145139,40.7150011 C34.8136893,40.5727736 34.8318919,40.4417067 34.8685817,40.3260932 C34.9078311,40.2021806 34.971256,40.0911458 35.056581,39.9955643 C35.1359332,39.906851 35.2366166,39.8272951 35.3560716,39.7589 L35.3560716,39.7589 Z M41.1237538,36.6210222 C41.4041885,36.629035 41.6274555,36.7211825 41.7878664,36.8946028 C41.9465708,37.0663061 42.0273451,37.2712054 42.0290516,37.5044357 C42.0299048,37.6395089 41.9923618,37.7788748 41.9175603,37.9185268 C41.8407678,38.061899 41.7417909,38.1689274 41.6234736,38.2367502 C41.4599341,38.3303285 41.315735,38.3440648 41.1957112,38.2788175 C41.112946,38.2341747 41.036438,38.1526156 40.9565169,38.0229796 C40.9007713,37.9319769 40.8427503,37.879035 40.7844449,37.8650126 C40.7568565,37.8581445 40.6732381,37.8532795 40.5042947,37.9500057 C40.2619718,38.0890854 40.0734037,38.3057177 39.9277824,38.6130666 C39.7781794,38.927856 39.7039466,39.3047447 39.7065064,39.7325721 C39.7090661,40.0756925 39.7591234,40.255981 39.8003638,40.3466976 C39.861229,40.4791953 39.9220941,40.4897837 39.944563,40.4940762 C40.024484,40.5092434 40.1359753,40.4757612 40.2668069,40.4010703 C40.433475,40.305775 40.5759676,40.1738496 40.6914407,40.0093006 C40.8103268,39.8396005 40.9010557,39.6344151 40.9616364,39.4000401 C40.9929222,39.2663977 41.0344471,39.1419128 41.0845044,39.0351706 C41.1490669,38.8975217 41.2523101,38.7870593 41.3916742,38.7075034 C41.6001515,38.5878835 41.760278,38.643687 41.836786,38.6880437 C41.9147161,38.7324004 42.0472542,38.8454384 42.0489792,39.1012763 C42.049814,39.2549508 42.0210879,39.4292296 41.9613604,39.6344151 C41.9041927,39.830443 41.8134639,40.0430689 41.692018,40.2665694 C41.5694345,40.492073 41.4104457,40.7109947 41.2196022,40.9170387 C41.0264834,41.1256582 40.7983814,41.3062328 40.5412688,41.4533253 C40.3464435,41.5649325 40.1647014,41.6462054 40.0008775,41.6948546 C39.8720368,41.733774 39.7483156,41.7532337 39.6314204,41.7532337 C39.5870515,41.7532337 39.5435357,41.750372 39.5014421,41.7446486 C39.3376182,41.7226133 39.1868774,41.6562214 39.0517796,41.5483345 C38.9346,41.4518945 38.8361919,41.3291266 38.7571241,41.1817479 C38.6817537,41.0415236 38.6243016,40.8781193 38.5864742,40.6955414 C38.5503533,40.5218349 38.5312974,40.3243761 38.5301597,40.1091747 C38.5278844,39.7646234 38.568556,39.4275126 38.65189,39.1067136 C38.7349396,38.7862008 38.8563855,38.4799966 39.0133834,38.1958276 C39.1700969,37.9116587 39.3578118,37.6541037 39.5699865,37.4308894 C39.7844365,37.2053858 40.0173736,37.01966 40.2625407,36.8791495 C40.5751144,36.7002919 40.8652192,36.6115785 41.1237538,36.6210222 Z M45.4875563,33.8857887 C45.7347142,33.7444196 45.9084927,33.8176797 45.9901202,33.8737695 C46.1920559,34.0119906 46.1940468,34.2978766 46.1943313,34.3914549 L46.1943313,34.3914549 L46.215391,37.5596669 C46.2162313,37.7674279 46.1747065,37.9517228 46.0905192,38.1082589 C46.004341,38.2676568 45.8888679,38.3895662 45.7477974,38.4708391 C45.4952355,38.6156422 45.3208882,38.5329384 45.2392606,38.4711252 C45.1121265,38.3735405 45.0495548,38.2055575 45.0481328,37.9580185 L45.0481328,37.9580185 L45.0447198,37.4537832 C45.0432977,37.2583276 44.837949,37.1361321 44.6712809,37.2314274 L44.6712809,37.2314274 L44.1573403,37.5258986 C44.0771348,37.5714 44.0282152,37.6583963 44.028784,37.7516884 L44.028784,37.7516884 L44.03561,38.808236 C44.0370321,39.015997 43.9949384,39.2005781 43.9107512,39.3568281 C43.8248574,39.516226 43.7096687,39.6384215 43.5683137,39.719122 C43.4647861,39.7786458 43.3740572,39.7995364 43.2978336,39.7995364 C43.1877644,39.7995364 43.1078434,39.7560382 43.059777,39.7194082 C42.8709244,39.5751774 42.8689335,39.2978766 42.8683647,39.2065877 L42.8683647,39.2065877 L42.8475784,36.038948 C42.8464646,35.8340488 42.8859985,35.6526156 42.9647819,35.4997997 C43.0466938,35.3409741 43.1624513,35.2179201 43.3080726,35.1343578 C43.5549461,34.9929888 43.7284402,35.0659627 43.8103521,35.1220524 C44.0122878,35.2611321 44.0142788,35.5464457 44.0148476,35.640024 L44.0148476,35.640024 L44.0171229,35.944225 C44.0179762,36.1393945 44.2236093,36.2618761 44.3902774,36.1662946 L44.3902774,36.1662946 L44.9045024,35.8718235 C44.984139,35.8260359 45.0333431,35.739612 45.0327743,35.6460337 L45.0327743,35.6460337 L45.0270859,34.7900927 C45.0259483,34.5849073 45.0663354,34.4026156 45.1473941,34.2483688 C45.2310126,34.0892571 45.345348,33.9673478 45.4875563,33.8857887 Z M5.00115136,22.2050996 C4.01792351,21.6773981 2.8441366,22.4154361 2.8441366,23.5615556 L2.8441366,23.5615556 L2.8441366,36.4790808 C2.8441366,37.6541037 4.07224706,38.38928 5.05689699,37.8043441 L5.05689699,37.8043441 L13.8837632,32.5559467 L16.4625676,31.0083276 C17.4696865,30.403932 17.4364097,28.8875057 16.4039778,28.3309009 L16.4039778,28.3309009 L13.8837632,26.9724416 Z M47.6351853,36.0008871 C47.8638561,35.8695341 48.0362125,35.9296303 48.1186933,35.977421 C48.203165,36.0260703 48.3439512,36.1479796 48.3459538,36.4189847 C48.3467954,36.5944082 48.3010043,36.7609604 48.2088534,36.9137763 C48.1189777,37.062872 48.0083397,37.1756239 47.8803523,37.2488839 C47.7736961,37.3101248 47.6789854,37.3313015 47.5990644,37.3313015 C47.5245473,37.3313015 47.46226,37.3129865 47.4147625,37.2903789 C47.3032712,37.237437 47.1710175,37.1135245 47.169311,36.8227736 C47.1684578,36.6679544 47.2116891,36.5105598 47.299005,36.3545959 C47.3863208,36.1974874 47.4992342,36.0784398 47.6351853,36.0008871 Z M26.6082731,3.36066277 C26.0516701,3.07735234 25.3969433,3.07706616 24.8403402,3.35923191 L24.8403402,3.35923191 L3.38993187,14.2477965 C2.6632477,14.6166724 2.66211003,15.6723615 3.38794095,16.0426683 L3.38794095,16.0426683 L24.6139446,26.8737122 C25.2351103,27.190791 25.9663451,27.1956559 26.591777,26.8885932 C27.6833675,26.3523065 28.6333187,25.8878491 29.4635304,25.4814847 C30.2106926,25.1154705 30.2166653,24.0351706 29.4751915,23.6577095 L29.4751915,23.6577095 L14.2341643,15.8941449 C13.6872314,15.6154132 13.6786989,14.823861 14.2190902,14.5328239 L14.2190902,14.5328239 L16.6517046,13.2235863 C17.0777605,12.9943624 17.5865817,12.9892113 18.0169038,13.2095639 L18.0169038,13.2095639 L30.9461937,19.8333047 C31.3716808,20.0507956 31.8725382,20.0496509 32.2960344,19.8270089 C32.8793726,19.5208047 33.5383657,19.1776843 34.281546,18.7973615 C35.0147718,18.4227621 35.0147718,17.3556261 34.281546,16.9807406 L34.281546,16.9807406 L23.1418048,11.2904934 C22.5923121,11.0097585 22.5880459,10.2121967 23.1349788,9.92573832 L23.1349788,9.92573832 L25.5929062,8.63853594 C26.0152647,8.41675252 26.5155534,8.4138908 26.9404716,8.63052312 L26.9404716,8.63052312 L43.6314541,17.1324119 C44.2594458,17.4523523 44.997791,17.4532109 45.6269203,17.1355598 C46.3368239,16.7772722 47.0848393,16.4015282 47.8638561,16.0091861 C48.6024858,15.6371623 48.6050455,14.5651614 47.8681224,14.1894174 L47.8681224,14.1894174 Z" id="Combined-Shape"></path>
                </g>
                <text id="EZ-TIT" font-family="ToppanBunkyuMidashiGothicStdN-ExtraBold, Toppan Bunkyu Midashi Gothic" font-size="20" font-weight="600" letter-spacing="10.5">
                    <tspan x="67" y="53">EZ TIT</tspan>
                </text>
                <text id="億集創見" font-family="ToppanBunkyuMidashiGothicStdN-ExtraBold, Toppan Bunkyu Midashi Gothic" font-size="30" font-weight="600" letter-spacing="0.535714286">
                    <tspan x="64" y="30">億集創見</tspan>
                </text>
            </g>
        </g>
    </g>
</svg>